<svg version="1.2" xmlns="http://www.w3.org/2000/svg" viewBox="0 0 1024 1024" width="1024" height="1024">
	<title>Proyecto nuevo</title>
	<style>
		.s0 { fill: none;stroke: #556cd6;stroke-miterlimit:100;stroke-width: 5 } 
		.s1 { fill: none;stroke: #556cd6;stroke-miterlimit:100;stroke-width: 50 } 
	</style>
	<path id="Forma 3" fill-rule="evenodd" class="s0" d="m479.9 373.2c0-20.1 14.3-55.2 31.6-55.2 17.8 0 31.6 35.1 31.6 55.2v39.1l87.9 69.9c4.4 3.5 7 9.4 7 15.7v33.4c0 6.4-5.3 11-10.4 9l-84.5-33.6v47.1l28.5 25.5c2 1.8 3.2 4.6 3.2 7.5v24.8c0 4.6-3.2 8.3-7 8.3q-0.9-0.1-1.9-0.3l-54.4-18.6-54.4 18.6c-0.6 0.2-1.3 0.3-1.9 0.3-3.9 0-6.9-3.8-6.9-8.3v-24.8c0-2.9 1.1-5.7 3.1-7.5l28.5-25.5v-47.1l-84.5 33.6c-5.1 2-10.4-2.6-10.4-9v-33.4c0-6.3 2.6-12.2 7-15.7l87.9-69.9z"/>
	<path id="Forma 4" class="s1" d="m513.5 168.9l328.5 401.3-331.5 404.8-328.5-401.3z"/>
	<path id="Forma 4 copy" class="s1" d="m513.5 45l328.5 401.3-331.5 404.8-328.5-401.3z"/>
</svg>